<svg xmlns="http://www.w3.org/2000/svg" width="1000" height="1000" display="block"><circle cx="500" cy="500" r="455" fill="none" stroke="#3F48CC" stroke-width="60"/><path fill="none" stroke="#3F48CC" stroke-width="20" d="M80 500a1 1 0 1 0 837.5 0A1 1 0 1 0 80 500"/><path fill="none" stroke="#3F48CC" stroke-width="20" d="M10 500a1 1 0 1 0 980 0 1 1 0 1 0-980 0"/><path stroke="#3F48CC" stroke-width="20" d="M110 650L500 85M180 775l320-450M615 500L495 332.5M621 500H380M890 650L500 85M890 650H270"/><path d="M890 650H280l100-150h410" fill="#3F48CC"/><path d="M790 501H610L410 220l90-120" fill="#3F48CC"/><path d="M415 220l85 120-320 420-70-100" fill="#3F48CC"/></svg>